#tb 0: 1/25
0,          0,          0,        1,   518400, 0x8f022263
0,          1,          1,        1,   518400, 0x02692654
0,          2,          2,        1,   518400, 0x55eff579
0,          3,          3,        1,   518400, 0x6c1bdf1d
0,          4,          4,        1,   518400, 0xbbedf5e4
0,          5,          5,        1,   518400, 0xb90d740d
0,          6,          6,        1,   518400, 0x81300adb
